<?xml version="1.0" encoding="utf-8"?>
<!-- Generator: Adobe Illustrator 28.0.0, SVG Export Plug-In . SVG Version: 6.00 Build 0)  -->
<svg version="1.1" id="Layer_1" xmlns="http://www.w3.org/2000/svg" xmlns:xlink="http://www.w3.org/1999/xlink" x="0px" y="0px"
	 viewBox="0 0 96 96" style="enable-background:new 0 0 96 96;" xml:space="preserve">
<style type="text/css">
	.st0{fill:none;stroke:#0C4A6E;stroke-width:4;stroke-linecap:square;}
	.st1{fill:#0C4A6E;}
	.st2{font-family:'Constantia';}
	.st3{font-size:28px;}
</style>
<g>
	<path class="st0" d="M7,11.7h82c1.7,0,3,1.1,3,2.5v67.7c0,1.4-1.3,2.5-3,2.5H7c-1.7,0-3-1.1-3-2.5V14.1C4,12.8,5.3,11.7,7,11.7z"/>
	<line class="st0" x1="33.3" y1="12.5" x2="33.3" y2="83.5"/>
	<line class="st0" x1="62.7" y1="12.5" x2="62.7" y2="83.5"/>
	<line class="st0" x1="5" y1="48" x2="91" y2="48"/>
</g>
<g>
	<text transform="matrix(1 0 0 1 9.2227 40.3067)" class="st1 st2 st3">Ε</text>
	<text transform="matrix(1 0 0 1 37.1377 40.3067)" class="st1 st2 st3">Δ</text>
	<text transform="matrix(1 0 0 1 65.5995 40.3067)" class="st1 st2 st3">Ο</text>
	<text transform="matrix(1 0 0 1 8.3614 76.0213)" class="st1 st2 st3">Ξ</text>
	<text transform="matrix(1 0 0 1 38.5527 76.0213)" class="st1 st2 st3">Ε</text>
	<text transform="matrix(1 0 0 1 65.5312 76.0213)" class="st1 st2 st3">Ν</text>
</g>
</svg>
